<svg xmlns="http://www.w3.org/2000/svg" xmlns:xlink="http://www.w3.org/1999/xlink" width="500" zoomAndPan="magnify" viewBox="0 0 375 374.999991" height="500" preserveAspectRatio="xMidYMid meet" version="1.0"><defs><clipPath id="5c8dbe7b5a"><path d="M 0 45 L 305 45 L 305 349.90625 L 0 349.90625 Z M 0 45 " clip-rule="nonzero"/></clipPath><clipPath id="278263120d"><path d="M 48 25.15625 L 283 25.15625 L 283 140 L 48 140 Z M 48 25.15625 " clip-rule="nonzero"/></clipPath></defs><g clip-path="url(#5c8dbe7b5a)"><path fill="#eda022" d="M 304.53125 197.585938 C 304.53125 281.699219 236.363281 349.882812 152.265625 349.882812 C 68.167969 349.882812 0 281.6875 0 197.585938 C 0 187.886719 0.910156 178.390625 2.636719 169.179688 C 7.589844 142.910156 19.285156 119.019531 35.867188 99.390625 C 63.804688 66.304688 105.585938 45.285156 152.265625 45.285156 C 236.363281 45.285156 304.53125 113.46875 304.53125 197.585938 Z M 304.53125 197.585938 " fill-opacity="1" fill-rule="nonzero"/></g><path fill="#e69926" d="M 88.109375 121.019531 C 88.136719 123.824219 87.621094 126.082031 86.367188 128.664062 C 85.414062 130.636719 84.519531 132.609375 83.457031 134.53125 C 82.695312 135.890625 82.027344 136.9375 82.054688 138.488281 C 82.070312 139.46875 81.796875 140.679688 82.273438 141.535156 C 83.5 143.710938 84.109375 140.964844 85.253906 141.15625 C 86.125 141.304688 87.046875 143.140625 87.210938 143.945312 C 87.265625 144.230469 87.277344 147.902344 88.460938 146.121094 C 88.898438 145.46875 88.382812 144.230469 88.503906 143.480469 C 88.667969 142.570312 89.265625 141.78125 89.402344 140.867188 C 89.523438 140.105469 89.375 139.183594 89.375 138.40625 C 89.375 137.359375 89.101562 135.929688 89.441406 134.9375 C 89.796875 133.875 90.734375 132.828125 91.222656 131.792969 C 91.699219 130.800781 92.027344 129.875 92.285156 128.800781 C 92.554688 127.660156 93.277344 126.707031 93.507812 125.578125 C 93.753906 124.328125 93.003906 123.671875 92 122.964844 C 91.046875 122.300781 89.140625 122.011719 88.53125 121.035156 " fill-opacity="1" fill-rule="nonzero"/><path fill="#e69926" d="M 86.816406 105.484375 C 85.78125 106.546875 84.722656 110.125 85.46875 111.347656 C 86.492188 111.28125 86.882812 109.675781 87.144531 108.914062 C 87.578125 107.675781 88.027344 107.15625 89.429688 106.84375 C 90.339844 106.640625 91.265625 106.859375 92.1875 106.804688 C 93.074219 106.75 94.949219 106.585938 95.546875 105.851562 C 96.691406 104.449219 95.167969 104.179688 94.230469 103.757812 C 93.578125 103.457031 93.113281 102.996094 92.378906 102.886719 C 91.386719 102.734375 89.605469 102.667969 88.613281 102.871094 C 87.46875 103.105469 87.046875 103.714844 86.382812 104.640625 " fill-opacity="1" fill-rule="nonzero"/><path fill="#e69926" d="M 75.175781 75.71875 C 77.445312 74.628906 78.859375 72.425781 81.160156 71.390625 C 83.851562 70.195312 86.761719 70.003906 89.535156 69.132812 C 90.351562 68.875 93.683594 66.957031 94.554688 67.417969 C 96.230469 68.304688 93.183594 70.808594 92.449219 71.324219 C 91.140625 72.234375 89.929688 72.019531 88.515625 72.332031 C 87.402344 72.574219 86.175781 73.203125 85.089844 73.554688 C 83.933594 73.9375 82.667969 74.289062 81.632812 74.957031 C 80.4375 75.730469 76.671875 78.957031 75.1875 77.011719 " fill-opacity="1" fill-rule="nonzero"/><path fill="#e69926" d="M 110.539062 66.65625 C 111.011719 65.515625 112.890625 64.984375 113.964844 64.5625 C 115.449219 63.992188 117.203125 63.625 118.78125 63.394531 C 120.261719 63.160156 121.511719 63.707031 122.617188 64.726562 C 123.351562 65.40625 123.71875 65.867188 124.792969 65.789062 C 126.164062 65.707031 127.8125 64.605469 129.019531 64.046875 C 131.6875 62.847656 134.433594 62.5625 137.265625 61.828125 C 141.046875 60.835938 148.238281 57.339844 151.082031 61.921875 C 153.300781 65.5 158.738281 60.101562 160.917969 64.507812 C 160.101562 66.167969 155.558594 66.644531 153.882812 66.671875 C 151.964844 66.710938 150.050781 66.671875 148.117188 66.671875 C 146.582031 66.671875 145.03125 66.820312 143.546875 66.453125 C 142.71875 66.25 141.929688 66.289062 141.070312 66.140625 C 139.863281 65.9375 138.882812 65.636719 137.617188 65.867188 C 135.140625 66.316406 132.925781 67.976562 130.585938 68.820312 C 129.523438 69.214844 128.492188 69.285156 127.363281 69.5 C 125.511719 69.867188 123.675781 70.332031 121.785156 70.507812 C 120.097656 70.671875 118.261719 70.644531 116.578125 70.546875 C 115.121094 70.46875 113.976562 69.433594 112.699219 68.808594 C 111.761719 68.34375 110.753906 68.359375 110.277344 67.3125 C 109.992188 66.683594 110.101562 66.03125 110.101562 65.367188 " fill-opacity="1" fill-rule="nonzero"/><path fill="#e69926" d="M 111.40625 84.777344 C 119.460938 80.726562 127.972656 76.003906 137.25 75.703125 C 139.019531 75.648438 140.992188 75.691406 141.25 77.964844 C 141.359375 78.886719 140.757812 79.609375 140.023438 80.042969 C 137.972656 81.242188 135.402344 81.5 133.484375 82.996094 C 131.78125 84.328125 130.980469 86.328125 129.511719 87.867188 C 128.082031 89.378906 126.421875 89.757812 124.410156 89.144531 C 121.691406 88.300781 118.886719 87.324219 116.003906 87.363281 C 114.945312 87.378906 114.671875 87.539062 113.992188 86.640625 C 113.636719 86.179688 113.214844 85.378906 113.148438 84.792969 " fill-opacity="1" fill-rule="nonzero"/><path fill="#e69926" d="M 191.628906 141.726562 C 191.628906 143.03125 189.410156 145.113281 188.839844 145.753906 C 186.773438 148.050781 184.363281 149.929688 182.230469 152.148438 C 181.167969 153.25 180.09375 154.554688 179.496094 155.996094 C 179.085938 156.960938 179.074219 157.957031 178.652344 158.933594 C 177.6875 161.179688 176.191406 163.4375 174.777344 165.425781 C 173.90625 166.648438 172.871094 169.355469 171.238281 167.273438 C 170.097656 165.820312 169.8125 163.929688 168.792969 162.402344 C 167.878906 161.058594 166.273438 159.875 164.683594 159.492188 C 162.78125 159.058594 159.949219 159.628906 158.386719 158.160156 C 157.609375 157.425781 157.367188 156.28125 157.121094 155.304688 C 156.523438 152.976562 156.183594 150.542969 155.925781 148.148438 C 155.828125 147.207031 156.019531 146.132812 155.816406 145.234375 C 155.652344 144.5 155.246094 144.160156 154.917969 143.46875 C 154.171875 141.835938 156.167969 139.371094 157.230469 138.269531 C 158.929688 136.515625 161.285156 135.972656 163.570312 135.25 C 166.070312 134.460938 168.667969 133.714844 171.226562 133.101562 C 171.90625 132.9375 173.714844 132.9375 174.476562 132.652344 C 176 132.066406 177.117188 129.660156 177.929688 128.40625 C 179.035156 126.691406 179.847656 125.15625 180.460938 123.210938 C 180.707031 122.40625 180.9375 121.714844 181.277344 120.964844 C 181.972656 119.457031 183.371094 118.042969 185.140625 117.933594 C 186.351562 117.851562 187.058594 118.410156 187.65625 119.414062 C 188.484375 120.828125 188.960938 122.300781 189.929688 123.671875 C 190.347656 124.273438 190.878906 124.855469 191.261719 125.496094 C 191.628906 126.109375 191.722656 126.910156 192.132812 127.496094 C 195.355469 132.164062 202.210938 121.742188 203.214844 119.171875 C 203.707031 117.933594 203.242188 117.0625 202.984375 115.808594 C 202.386719 112.941406 201.488281 110.464844 199.953125 107.945312 C 197.777344 104.367188 196.035156 100.667969 192.199219 98.585938 C 189.601562 97.171875 186.335938 96.21875 183.425781 97.28125 C 180.351562 98.398438 177.984375 101.566406 176.191406 104.21875 C 175.046875 105.90625 174.054688 107.835938 172.574219 109.28125 C 171.484375 110.328125 170.382812 111.347656 169.320312 112.382812 C 168.113281 113.566406 167.253906 115.566406 165.800781 116.449219 C 163.269531 117.972656 160.304688 115.375 159.257812 113.238281 C 157.121094 108.859375 160.03125 105.007812 162.371094 101.554688 C 163.011719 100.613281 163.648438 99.824219 164.480469 99.007812 C 165.511719 97.988281 166.792969 97.402344 166.683594 95.785156 C 166.5625 93.867188 164.886719 92.070312 163.992188 90.480469 C 163.296875 89.253906 161.9375 87.0625 162.34375 85.554688 C 162.628906 84.492188 163.730469 83.933594 164.601562 83.460938 C 166.804688 82.75 169.0625 82.316406 171.390625 82.167969 C 173.457031 81.988281 175.523438 81.828125 177.589844 81.648438 C 178.816406 81.515625 180.554688 80.984375 181.753906 81.664062 C 183.359375 82.5625 184.039062 85.089844 185.152344 86.480469 C 186.960938 88.722656 189.167969 90.167969 192.007812 90.765625 C 194.238281 91.226562 196.386719 92.886719 198.089844 94.355469 C 201.367188 97.1875 205.785156 98.054688 209.296875 100.464844 C 210.195312 101.078125 211.078125 101.894531 211.921875 102.585938 C 212.914062 103.417969 213.171875 104.410156 213.824219 105.472656 C 215.578125 108.367188 218.164062 108.449219 221.375 108.695312 C 223.589844 108.859375 225.5625 109.074219 227.441406 107.6875 C 228.203125 107.117188 229.03125 106 229.984375 105.714844 C 229.941406 107.417969 229.070312 109.171875 228.828125 110.859375 C 228.515625 112.941406 228.363281 114.980469 228.308594 117.0625 C 228.214844 120.488281 225.496094 123.210938 225.46875 126.734375 C 225.441406 129.480469 228.554688 130.800781 230.703125 131.617188 C 231.492188 131.917969 232.894531 132.582031 233.792969 132.242188 C 234.621094 131.929688 234.742188 131.019531 235.003906 130.285156 C 235.53125 128.800781 235.886719 126.871094 237.613281 126.296875 C 238.238281 126.816406 238.511719 128.027344 238.90625 128.746094 C 239.3125 129.507812 239.339844 130.269531 239.707031 131.019531 C 240.621094 132.910156 242.222656 134.746094 243.871094 136.039062 C 245.53125 137.359375 248.046875 137.359375 249.296875 139.101562 C 250.125 140.269531 249.757812 141.046875 249.570312 142.433594 C 249.390625 143.792969 249.460938 145.179688 249.460938 146.554688 C 249.460938 147.628906 249.175781 148.921875 249.894531 149.792969 C 251.460938 151.683594 254.316406 152.1875 255.949219 153.902344 C 256.953125 154.949219 257.582031 156.445312 258.492188 157.589844 C 259.226562 158.527344 262.652344 160.675781 262.367188 161.941406 C 260.707031 162.296875 258.898438 161.683594 257.226562 162.078125 C 255.566406 162.472656 252.804688 162.988281 252.941406 165.246094 C 252.984375 165.96875 253.609375 166.921875 253.878906 167.613281 C 254.195312 168.472656 254.113281 168.851562 255.023438 169.382812 C 257.265625 170.675781 257.292969 168.375 258.953125 167.722656 C 260.355469 168.429688 259.824219 171.164062 259.8125 172.457031 C 259.796875 174.660156 258.21875 175.667969 256.34375 176.703125 C 254.25 177.84375 252.601562 179.394531 250.820312 181 C 249.707031 182.007812 248.589844 183.871094 246.902344 184.074219 C 245.734375 184.210938 243.9375 182.539062 243.039062 181.953125 C 242.128906 181.355469 241.355469 180.484375 240.375 179.996094 C 239.53125 179.574219 238.226562 179.53125 237.289062 179.640625 C 234.960938 179.914062 235.097656 182.757812 234.691406 184.496094 C 233.886719 187.914062 232.894531 191.515625 230.855469 194.414062 C 229.425781 196.457031 227.710938 197.488281 225.265625 197.84375 C 223.425781 198.101562 221.945312 198.808594 221.46875 200.835938 C 221.265625 201.707031 221.851562 203.40625 221.359375 204.128906 C 221.0625 204.5625 219.90625 204.972656 219.484375 205.164062 C 218.789062 205.488281 217.347656 206.113281 216.628906 205.652344 C 216.152344 205.351562 215.90625 203.9375 215.824219 203.421875 C 215.59375 201.953125 215.511719 200.183594 216.601562 199.109375 C 217.28125 198.429688 218.257812 198.0625 218.84375 197.3125 C 219.660156 196.277344 219.699219 195.066406 219.671875 193.816406 C 219.648438 192.265625 219.917969 190.46875 218.84375 189.191406 C 218.421875 188.90625 218 188.605469 217.605469 188.292969 C 217.128906 187.695312 216.804688 187.015625 216.628906 186.265625 C 216.261719 185.152344 216.015625 184.007812 215.890625 182.835938 C 216.070312 182.046875 215.867188 181.421875 215.292969 180.988281 C 212.96875 182.265625 212.613281 187.492188 209.066406 186.59375 C 206.441406 185.925781 204.617188 181.804688 203.3125 179.722656 C 201.609375 176.972656 199.039062 173.859375 198.566406 170.582031 C 198.386719 169.328125 198.292969 168.269531 197.980469 167.042969 C 197.53125 165.355469 197.722656 163.683594 197.082031 162.035156 C 196.714844 161.113281 196.292969 160.1875 195.980469 159.234375 C 195.707031 158.390625 195.503906 157.5625 194.308594 157.644531 C 193.339844 157.710938 192.945312 158.8125 192.0625 159.085938 C 190.703125 159.492188 190.296875 158.039062 189.886719 156.976562 C 188.90625 154.390625 188.933594 152.71875 190.554688 150.554688 C 191.96875 148.675781 195.21875 142.894531 192.5 140.882812 " fill-opacity="1" fill-rule="nonzero"/><path fill="#e69926" d="M 243.394531 165.886719 C 241.777344 165.710938 237.640625 168.429688 240.78125 168.894531 C 241.515625 169.003906 242.605469 169.125 243.203125 168.664062 C 244.089844 167.980469 243.84375 166.417969 243.828125 165.464844 " fill-opacity="1" fill-rule="nonzero"/><path fill="#e69926" d="M 267.550781 177.96875 C 267.523438 180.402344 266.082031 181.695312 264.328125 183.300781 C 262.84375 184.660156 261.292969 186.019531 259.308594 186.539062 C 257.429688 187.027344 255.648438 187.125 253.839844 187.898438 C 252.753906 188.359375 251.160156 188.769531 250.753906 190.046875 C 250.617188 190.484375 250.601562 191.722656 250.65625 192.183594 C 250.820312 193.652344 252.195312 194.824219 252.886719 196.089844 C 253.691406 197.558594 254.425781 199.039062 255.351562 200.429688 C 256.820312 202.605469 257.960938 204.222656 258.070312 206.972656 C 258.136719 208.792969 257.609375 211.148438 258.003906 212.929688 C 258.371094 214.5625 261.308594 215.5 262.761719 215.5 C 264.910156 215.515625 266.476562 215.121094 267.917969 217.121094 C 268.800781 218.34375 268.882812 220.496094 269.15625 221.992188 C 269.441406 223.515625 269.25 225.175781 269.25 226.726562 C 269.25 228.832031 269.292969 230.941406 269.265625 233.050781 C 269.222656 235.390625 268.09375 236.425781 266.570312 237.988281 C 266.011719 238.5625 264.871094 239.59375 265.496094 240.480469 C 265.957031 241.132812 267.714844 241.144531 268.421875 241.28125 C 270.285156 241.621094 272.3125 241.390625 274.203125 241.375 C 275.25 241.363281 276.566406 241.132812 277.519531 241.675781 C 278.242188 242.085938 279.585938 244.558594 278.375 245.1875 C 277.21875 244.613281 276.664062 242.480469 276.199219 241.347656 C 275.519531 239.746094 275.5625 238.246094 275.234375 236.601562 C 274.882812 234.847656 274.445312 233.351562 274.472656 231.527344 C 274.472656 231.09375 274.460938 230.644531 274.460938 230.207031 C 274.460938 228.507812 275.015625 227.867188 276.484375 226.914062 C 279.613281 224.875 283.230469 223.976562 286.550781 222.332031 C 287.3125 221.949219 288.726562 221.390625 289.203125 220.671875 C 290.183594 219.203125 288.167969 217.203125 287.175781 216.113281 C 285.394531 214.167969 284.742188 211.84375 283.613281 209.515625 C 283.027344 208.304688 283.339844 207.3125 283.640625 206.019531 C 283.871094 204.984375 284.019531 204.375 283.558594 203.394531 C 283.082031 202.414062 282.730469 201.855469 282.660156 200.769531 C 282.566406 199.21875 281.816406 198.375 281.367188 196.972656 C 280.703125 194.917969 281.082031 192.824219 280.960938 190.726562 C 280.867188 189.136719 280.253906 187.613281 279.84375 186.089844 C 279.667969 185.410156 279.152344 182.417969 280.007812 181.859375 C 280.785156 181.355469 283.109375 181.75 283.859375 182.210938 C 284.78125 182.785156 285.734375 184.621094 286.035156 185.707031 C 286.144531 186.117188 285.9375 186.703125 286.15625 187.042969 C 286.578125 187.695312 287.378906 187.410156 287.855469 187.070312 C 289.21875 186.117188 288.824219 182.171875 290.320312 182.023438 C 291.132812 182.566406 291.636719 183.761719 291.746094 184.714844 C 291.84375 185.574219 291.214844 187.3125 292.128906 187.777344 C 293.09375 187.246094 293.582031 185.789062 293.417969 184.757812 C 293.203125 184.035156 292.917969 183.328125 292.578125 182.660156 C 292.261719 181.585938 292.085938 180.472656 292.03125 179.355469 C 291.871094 178.292969 291.761719 177.21875 291.71875 176.144531 C 291.789062 175.464844 291.789062 174.785156 291.691406 174.105469 C 291.378906 173.53125 290.523438 172.988281 289.882812 172.839844 C 288.972656 172.609375 288.5625 173.054688 287.9375 172.28125 C 287.246094 171.425781 287.542969 170.242188 287.746094 169.316406 C 287.980469 168.253906 288.265625 165.613281 287.816406 164.554688 C 287.367188 163.492188 285.859375 163.207031 284.796875 163.234375 C 283.464844 163.261719 283.21875 163.777344 283.382812 164.960938 C 283.601562 166.609375 284.035156 168.035156 283.96875 169.710938 C 283.898438 171.371094 283.53125 172.878906 283.53125 174.582031 C 283.519531 176.824219 284.457031 178.550781 281.789062 179.261719 C 279.941406 179.75 276.960938 180.238281 275.234375 179.273438 C 274.121094 178.648438 273.738281 177.585938 272.867188 176.714844 C 272.1875 176.050781 271.304688 175.65625 270.542969 175.097656 C 268.746094 173.792969 268.175781 172.308594 266.816406 170.703125 C 266.191406 169.96875 265.714844 168.691406 265.019531 168.078125 C 264.367188 167.507812 263.386719 167.300781 262.613281 166.90625 C 261.496094 166.363281 260.859375 166.363281 259.742188 167.125 C 258.585938 167.914062 258.980469 167.980469 259.265625 169.164062 C 259.703125 170.933594 260.261719 172.660156 260.234375 174.484375 C 260.21875 175.179688 260.054688 176.050781 260.261719 176.714844 C 260.558594 177.65625 262 178.539062 262.84375 178.933594 C 263.890625 179.421875 265.128906 179.21875 266.257812 179.21875 " fill-opacity="1" fill-rule="nonzero"/><path fill="#e69926" d="M 264.53125 133.523438 C 262.152344 133.195312 260 137.03125 259.292969 138.761719 C 258.546875 140.597656 258.832031 141.902344 259.238281 143.808594 C 259.730469 146.132812 261.523438 147.46875 263.199219 149.003906 C 264.273438 149.984375 265.144531 151.25 265.851562 152.515625 C 266.460938 153.601562 266.667969 155.097656 267.589844 155.984375 C 269.507812 157.832031 272.214844 155.671875 274.378906 156.023438 C 275.957031 156.28125 276.59375 157.617188 277.058594 158.949219 C 277.316406 159.710938 278.007812 162.171875 278.839844 162.199219 C 280.539062 159.847656 281.777344 156.757812 282.757812 154.023438 C 282.972656 153.425781 283.449219 152.703125 283.558594 152.066406 C 283.722656 151.070312 283.070312 149.179688 282.960938 148.269531 C 282.6875 145.917969 282.714844 143.65625 282.660156 141.304688 C 282.648438 140.609375 282.59375 140.214844 282.335938 139.578125 C 281.585938 137.753906 280.484375 136.515625 279.398438 134.855469 C 278.417969 133.359375 277.289062 131.929688 276.171875 130.53125 C 275.683594 129.917969 275.410156 129.15625 274.703125 128.746094 C 273.886719 128.285156 272.363281 128.011719 271.425781 127.902344 C 269.496094 127.699219 268.339844 128.246094 266.691406 127.074219 C 265.753906 126.40625 264.882812 125.6875 264.066406 124.882812 C 263.375 124.203125 262.777344 123.292969 261.90625 122.828125 C 260.328125 123.742188 260.898438 127.347656 261.675781 128.570312 C 262.640625 130.121094 263.496094 132.625 263.671875 134.394531 " fill-opacity="1" fill-rule="nonzero"/><path fill="#e69926" d="M 88.109375 240.519531 C 88.339844 241.402344 89.796875 241.921875 90.53125 242.453125 C 91.644531 243.253906 92.691406 243.976562 93.726562 244.914062 C 95.78125 246.792969 96.363281 249.023438 97.386719 251.472656 C 97.765625 252.394531 98.324219 253.445312 98.910156 254.261719 C 99.507812 255.089844 100.484375 255.539062 101.273438 256.191406 C 102.417969 257.128906 105.492188 260.109375 103.21875 261.386719 C 102.214844 261.945312 100.867188 261.632812 99.738281 261.632812 C 98.039062 261.648438 98.148438 262.015625 97.492188 263.28125 C 97.070312 264.109375 96.324219 264.476562 97.003906 265.332031 C 97.507812 265.972656 99.042969 266.410156 99.75 266.804688 C 101.792969 267.933594 103.03125 270.707031 103.65625 272.882812 C 104.023438 274.136719 104.8125 277.753906 102.757812 278.054688 C 101.914062 277.375 102.117188 276.324219 101.519531 275.535156 C 101.03125 274.898438 100.40625 274.707031 99.671875 274.476562 C 96.664062 273.523438 96.882812 275.265625 94.582031 276.625 C 91.332031 278.542969 92.285156 273.167969 90.257812 272.488281 C 88.800781 272 87.808594 274.257812 86.355469 274.246094 C 85.386719 273.320312 85.496094 270.964844 85.484375 269.878906 C 85.46875 268.367188 85.523438 266.84375 85.511719 265.332031 C 85.484375 263.320312 85.78125 262.652344 87.226562 261.226562 C 88.925781 259.539062 92.652344 257.210938 91.320312 254.355469 C 90.828125 253.292969 89.835938 252.300781 89.167969 251.320312 C 88.300781 250.027344 87.605469 248.65625 86.789062 247.335938 C 86.054688 246.152344 85.578125 244.601562 85.484375 243.199219 C 85.429688 242.328125 85.144531 240.234375 85.933594 239.664062 " fill-opacity="1" fill-rule="nonzero"/><path fill="#e69926" d="M 11.328125 206.875 C 10.253906 207.773438 9.671875 209.871094 9.453125 211.230469 C 9.277344 212.359375 9.753906 213.296875 9.96875 214.398438 C 10.28125 215.949219 10.554688 216.996094 11.546875 218.289062 C 11.941406 218.808594 12.5 220.34375 13.03125 220.601562 C 14.089844 219.839844 13.667969 218.78125 13.886719 217.746094 C 13.996094 217.242188 14.269531 216.875 14.347656 216.371094 C 14.511719 215.460938 14.320312 214.277344 14.320312 213.351562 C 14.320312 212.128906 14.335938 211.066406 13.996094 209.910156 C 13.820312 209.339844 13.902344 208.753906 13.492188 208.25 C 13.03125 207.609375 12.011719 207.257812 11.328125 206.875 " fill-opacity="1" fill-rule="nonzero"/><path fill="#e69926" d="M 69.136719 276.761719 C 69.898438 276.761719 71.011719 276.53125 71.746094 276.71875 C 72.710938 276.980469 73.175781 278.054688 73.472656 278.953125 C 73.828125 279.984375 73.839844 281.085938 74.085938 282.132812 C 74.332031 283.183594 75.132812 284.789062 74.683594 285.847656 C 73.894531 285.5625 73.515625 284.460938 72.984375 283.835938 C 72.140625 282.84375 71.570312 282.394531 70.425781 281.835938 C 69.652344 281.453125 68.699219 280.871094 68.222656 280.136719 C 67.71875 279.347656 67.394531 277.425781 68.265625 276.746094 " fill-opacity="1" fill-rule="nonzero"/><path fill="#e69926" d="M 44.980469 256.914062 C 44.964844 258.179688 45.632812 260.015625 46.269531 261.089844 C 46.871094 262.097656 47.792969 262.640625 48.1875 263.808594 C 48.433594 264.503906 48.214844 265.960938 49.085938 266.09375 C 50.5 266.328125 50.800781 262.476562 50.921875 261.703125 C 51.222656 259.621094 50.910156 257.972656 48.9375 256.84375 C 47.835938 256.21875 45.796875 257.035156 44.964844 256.027344 " fill-opacity="1" fill-rule="nonzero"/><path fill="#e69926" d="M 23.40625 233.621094 C 23.476562 236.640625 23 239.675781 22.972656 242.710938 C 22.957031 244.847656 23.597656 246.054688 24.617188 247.878906 C 25.542969 249.539062 25.816406 251.320312 25.582031 253.226562 C 25.476562 254.125 24.507812 255.363281 23.378906 254.914062 C 22.277344 254.476562 21.855469 252.109375 21.460938 251.117188 C 20.851562 249.605469 20.019531 247.851562 19.097656 246.558594 C 18.496094 245.714844 17.65625 244.953125 17.109375 244.082031 C 16.550781 243.1875 16.59375 242.191406 16.292969 241.226562 C 15.710938 239.296875 14.320312 237.703125 13.042969 236.195312 C 12.429688 235.472656 11.722656 234.804688 11.289062 233.960938 C 10.949219 233.308594 10.460938 230.03125 12.1875 230.671875 C 12.976562 232.152344 13.261719 232.535156 14.921875 232.859375 C 16.445312 233.160156 17.859375 233.730469 19.421875 233.960938 C 19.898438 234.03125 22.46875 234.03125 23.054688 234.546875 C 23.640625 235.0625 23.734375 236.574219 22.617188 236.453125 C 20.15625 234.546875 24.292969 231.132812 25.109375 229.730469 " fill-opacity="1" fill-rule="nonzero"/><path fill="#e69926" d="M 155.175781 180.144531 C 154.945312 181.519531 154.101562 181.3125 152.988281 181.410156 C 151.695312 181.53125 150.050781 181.75 149.097656 182.6875 C 148.347656 183.4375 148.417969 184.15625 148.0625 185.042969 C 147.300781 186.933594 144.988281 185.789062 143.410156 186.183594 C 142.121094 186.496094 141.601562 187.082031 141.34375 188.253906 C 141.097656 189.382812 140.921875 190.621094 139.753906 191.230469 C 138.285156 190.769531 137.085938 188.402344 136.40625 187.21875 C 135.277344 185.203125 134.640625 182.484375 132.789062 180.960938 C 129.292969 178.089844 127.988281 184.550781 127.5 186.714844 C 127.105469 188.511719 127.511719 190.59375 126.492188 192.128906 C 126.082031 192.742188 125.242188 193.53125 125.117188 194.265625 C 124.925781 195.355469 125.894531 197.175781 126.246094 198.167969 C 127.523438 201.789062 128.652344 205.3125 128.871094 209.132812 C 128.953125 210.605469 128.519531 213.214844 127.8125 214.523438 C 127.007812 216.003906 125.59375 216.195312 124.113281 216.289062 C 123.023438 216.359375 120.207031 217.269531 120.683594 218.835938 C 120.957031 219.691406 123.71875 219.527344 124.65625 219.8125 C 125.933594 220.207031 126.574219 221.132812 127.363281 222.140625 C 128.328125 223.363281 129.414062 224.753906 130.558594 225.828125 C 131.933594 227.105469 135.113281 227.828125 135.359375 229.894531 C 135.441406 230.574219 135.074219 231.1875 134.9375 231.828125 C 134.707031 232.996094 134.570312 233.785156 133.984375 234.886719 C 132.488281 237.664062 132.640625 239.71875 133.265625 242.613281 C 133.851562 245.308594 134.910156 250.710938 132.460938 252.898438 C 131.347656 253.890625 129.550781 254.109375 128.207031 254.707031 C 124.65625 256.285156 121.433594 258.519531 117.800781 259.933594 C 116.03125 260.613281 113.84375 261.539062 112.277344 260.070312 C 111.53125 259.375 110.984375 258.339844 110.304688 257.566406 C 109.175781 256.285156 107.707031 255.566406 106.59375 254.261719 C 105.941406 253.484375 105.246094 252.667969 104.484375 251.988281 C 103.574219 251.171875 102.703125 250.734375 103.164062 249.457031 C 104.1875 246.613281 107.355469 243.292969 110.347656 243.023438 C 110.726562 243.976562 110.550781 245.867188 111.558594 246.398438 C 112.796875 245.960938 113.734375 244.722656 114.847656 244.058594 C 115.691406 243.554688 116.289062 243.714844 117.230469 243.921875 C 118.222656 244.136719 119.351562 244.820312 120.25 245.730469 C 120.25 245.769531 120.25 245.796875 120.261719 245.839844 C 120.398438 247.402344 120.507812 249.621094 121.199219 251.035156 C 122.5625 249.347656 121.71875 247.226562 120.25 245.730469 C 120.167969 244.792969 120.179688 244.082031 120.644531 243.253906 C 121.1875 242.273438 121.988281 241.253906 122.886719 240.574219 C 124.015625 239.703125 125.445312 238.941406 126.191406 237.664062 C 124.804688 237.664062 123.378906 237.960938 122.003906 238.113281 C 118.546875 238.480469 115.082031 238.722656 111.597656 238.941406 C 106.347656 239.269531 101.003906 239.253906 95.792969 240.070312 C 94.882812 240.21875 93.957031 240.558594 93.019531 240.398438 C 92.664062 237.894531 95.441406 235.269531 96.011719 232.929688 C 96.363281 231.433594 96.472656 229.949219 96.757812 228.4375 C 97.058594 226.832031 98.28125 223.515625 96.542969 222.34375 C 95.835938 221.867188 93.398438 221.257812 92.554688 221.5 C 90.992188 221.949219 91.753906 225.09375 91.769531 226.332031 C 91.78125 228.167969 91.753906 230.058594 90.910156 231.746094 C 90.175781 233.214844 88.925781 233.757812 87.824219 234.859375 C 86.910156 235.757812 86.910156 236.859375 86.503906 238.03125 C 84.546875 237.894531 84.640625 231.296875 81.839844 232.574219 C 80.179688 233.335938 79.648438 234.535156 79.691406 236.234375 C 79.703125 237.335938 79.648438 238.425781 79.675781 239.527344 C 79.703125 240.777344 80.152344 241.867188 80.34375 243.105469 C 80.640625 245.0625 80.464844 246.996094 81.171875 248.886719 C 81.660156 250.191406 82.234375 251.363281 82.503906 252.761719 C 82.695312 253.757812 83.183594 256.367188 81.785156 256.886719 C 80.792969 257.253906 79.878906 255.839844 78.875 256.246094 C 76.699219 257.128906 79.023438 261.917969 79.472656 263.332031 C 80.492188 266.625 74.628906 266.625 72.65625 266.734375 C 70.78125 266.832031 69.746094 266.015625 68.589844 264.652344 C 67.816406 263.726562 66.742188 262.191406 65.695312 261.632812 C 64.742188 261.128906 63.4375 261.101562 62.429688 260.789062 C 60.621094 260.230469 58.511719 259.128906 57.667969 257.335938 C 57.207031 256.339844 57.246094 255.238281 56.960938 254.191406 C 56.691406 253.144531 56.160156 252.289062 55.777344 251.292969 C 55.277344 250 55.507812 248.34375 55.546875 246.953125 C 55.574219 245.566406 56.132812 243.636719 57.464844 242.898438 C 58.335938 242.425781 59.371094 243.007812 60.210938 242.601562 C 60.960938 242.246094 61.234375 240.804688 62.183594 240.914062 C 63.097656 241.007812 63.230469 242.53125 64.183594 242.847656 C 65.300781 243.214844 66.199219 242.4375 66.375 241.402344 C 66.632812 239.976562 66.101562 238.4375 66.402344 236.96875 C 66.578125 236.097656 66.984375 235.242188 67.378906 234.453125 C 68.167969 232.875 69.027344 231.269531 68.074219 229.59375 C 66.511719 226.820312 62.835938 227.121094 60.566406 225.390625 C 59.425781 224.519531 59.886719 223.1875 59.75 221.867188 C 59.640625 220.808594 59.546875 217.527344 58.566406 216.726562 C 56.785156 215.296875 57.371094 219.582031 56.851562 220.101562 C 52.445312 218.261719 53.535156 228.726562 53.398438 230.65625 C 53.234375 232.914062 52.296875 235.1875 51.398438 237.226562 C 50.472656 239.363281 48.746094 240.75 46.964844 242.207031 C 46.175781 242.859375 42.175781 246.738281 40.996094 245.636719 C 41.863281 244.925781 43.265625 244.765625 43.945312 243.851562 C 44.503906 243.117188 44.667969 241.742188 44.855469 240.875 C 45.292969 238.859375 45.167969 236.859375 45.167969 234.820312 C 45.167969 234.425781 45.632812 231.949219 44.800781 232.113281 C 44.816406 231.59375 45.183594 231.296875 45.320312 230.804688 C 45.457031 230.25 45.375 229.855469 45.222656 229.28125 C 44.855469 227.882812 44.09375 226.507812 43.46875 225.203125 C 42.464844 225.203125 41.226562 228.222656 40.667969 229.050781 C 40 230.042969 38.859375 232.683594 37.59375 232.914062 C 36.925781 233.039062 36.640625 232.644531 36.03125 232.382812 C 35.171875 232.03125 34.316406 232.015625 33.609375 231.351562 C 32.875 230.644531 32.507812 229.800781 31.621094 229.242188 C 30.710938 228.683594 29.785156 228.097656 28.835938 227.59375 C 27.421875 226.847656 26.617188 225.488281 25.296875 224.5625 C 23.910156 223.597656 23.230469 222.644531 22.441406 221.078125 C 21.367188 218.957031 20.128906 216.847656 18.523438 215.121094 C 17.367188 213.867188 17.53125 212.046875 16.308594 210.78125 C 15.058594 209.476562 13.453125 209.625 14.742188 207.679688 C 15.503906 206.535156 16.660156 205.53125 17.355469 204.402344 C 18.445312 202.605469 16.023438 202.945312 15.21875 201.871094 C 13.667969 199.773438 15.449219 197.40625 15.425781 195.164062 C 15.410156 193.882812 15.425781 192.605469 15.425781 191.339844 C 15.425781 190.144531 15.476562 188.933594 15.4375 187.734375 C 15.410156 186.824219 15.382812 184.742188 14.933594 183.859375 C 14.457031 182.933594 13.667969 183.109375 12.839844 182.605469 C 11.984375 182.089844 11.152344 181.027344 10.675781 180.15625 C 9.125 177.339844 8.9375 174.554688 8.964844 171.449219 L 7.671875 171.449219 C 6.9375 171.4375 6.132812 171.574219 5.425781 171.371094 C 4.761719 171.179688 4.136719 170.675781 3.453125 170.457031 C 3.007812 170.308594 2.515625 170.144531 2 169.996094 C 6.949219 143.726562 18.648438 119.835938 35.226562 100.207031 C 35.976562 100.234375 36.695312 100.328125 37.375 100.558594 C 38.273438 100.859375 38.246094 101.183594 38.804688 101.878906 C 39.402344 102.613281 39.796875 103.484375 40.914062 102.859375 C 41.878906 102.316406 41.90625 101.28125 42.382812 100.449219 C 43.199219 99.0625 44.230469 98.125 45.535156 97.226562 C 46.09375 96.847656 46.421875 96.289062 47.007812 95.949219 C 47.972656 95.609375 48.949219 95.292969 49.945312 95.007812 C 50.992188 94.710938 51.917969 94.179688 52.703125 93.445312 C 52.675781 92.738281 52.203125 92.464844 52.351562 91.730469 C 52.472656 91.160156 53.03125 90.683594 53.371094 90.246094 C 54.1875 89.171875 54.894531 88.328125 55.984375 87.5 C 57.398438 86.4375 58.894531 85.460938 60.292969 84.410156 C 61.261719 83.675781 62.074219 82.546875 63.125 81.949219 C 64.0625 81.417969 64.988281 81.960938 65.871094 81.324219 C 66.835938 80.617188 67.351562 79.800781 68.714844 80.003906 C 69.898438 80.179688 71.460938 81.488281 71.855469 82.683594 C 72.195312 83.71875 71.910156 85.1875 71.921875 86.261719 C 71.9375 87.527344 71.800781 88.015625 71.367188 89.132812 C 70.644531 91.023438 71.976562 92.410156 73.976562 92.4375 C 77.675781 92.480469 81.933594 90.492188 84.871094 88.316406 C 86.679688 86.96875 87.808594 85.039062 89.5625 83.59375 C 91.714844 81.828125 94.5 80.316406 96.949219 79.023438 C 98.621094 78.125 99.179688 77.839844 100.867188 77.8125 C 101.980469 77.800781 103.109375 77.839844 104.226562 77.839844 C 105.75 77.839844 109.476562 77.121094 110.59375 78.359375 C 110.402344 79.308594 108.851562 79.460938 108.101562 79.894531 C 107.613281 80.179688 107.300781 80.507812 106.878906 80.859375 C 104.839844 82.492188 101.996094 83.800781 99.535156 84.671875 C 96.828125 85.621094 94.378906 86.03125 92.054688 87.757812 C 90.542969 88.875 90.449219 90.382812 90.460938 92.097656 C 90.476562 93.472656 90.734375 95.132812 90.148438 96.398438 C 89.035156 98.816406 87.0625 99.878906 84.84375 101.253906 C 83.742188 101.933594 81.730469 103.023438 80.953125 104.191406 C 80.328125 105.128906 80.246094 107.101562 80.179688 108.179688 C 79.933594 111.578125 80.792969 114.980469 81.632812 118.246094 C 81.976562 119.539062 81.839844 120.925781 81.824219 122.246094 C 81.824219 123.035156 82.027344 123.742188 82.082031 124.515625 C 82.152344 125.605469 81.730469 126.871094 81.417969 127.917969 C 81.023438 129.195312 80.191406 130.773438 80.507812 132.175781 C 80.601562 132.597656 81.007812 133.085938 80.925781 133.523438 C 80.777344 134.421875 78.695312 135.074219 78.125 135.5625 C 77.433594 136.148438 76.902344 136.882812 76.234375 137.496094 C 75.269531 138.367188 74.574219 139.480469 73.664062 140.40625 C 73.09375 140.992188 72.46875 141.507812 71.921875 142.121094 C 71.351562 142.761719 70.660156 143.5625 70.238281 144.3125 C 69.558594 145.496094 70.238281 147.261719 70.5625 148.488281 C 71.054688 150.324219 72.074219 151.65625 73.175781 153.125 C 73.800781 153.957031 75.910156 158.363281 77.226562 158.144531 C 79.117188 157.847656 79.199219 154.960938 81.621094 155.085938 C 81.609375 156.648438 80.628906 158.214844 80.96875 159.820312 C 81.171875 160.773438 82.027344 161.328125 82.695312 162.011719 C 83.539062 162.867188 83.703125 162.933594 84.859375 162.484375 C 87.878906 161.316406 90.71875 159.957031 93.507812 158.296875 C 94.148438 157.914062 95.902344 157.085938 96.023438 156.214844 C 96.09375 155.726562 95.765625 155.75 95.671875 155.289062 C 95.289062 153.453125 95.628906 151.304688 95.628906 149.441406 C 95.628906 147.617188 95.617188 145.78125 95.644531 143.957031 C 95.65625 143.289062 95.671875 142.652344 95.535156 141.984375 C 95.441406 141.550781 95.15625 141.261719 95.222656 140.773438 C 95.316406 140.078125 96.527344 138.992188 96.921875 138.40625 C 97.738281 137.210938 98.445312 135.972656 99.34375 134.84375 C 100.011719 134 100.921875 132.828125 102.007812 132.53125 C 102.566406 132.378906 102.90625 132.460938 103.464844 132.378906 C 104.265625 132.269531 105.761719 131.660156 106.210938 131.003906 C 106.648438 130.351562 106.46875 129.402344 106.445312 128.679688 C 106.417969 127.671875 106.660156 125.699219 105.914062 124.84375 C 105.289062 124.121094 103.792969 124.09375 102.933594 123.808594 C 101.246094 123.238281 100.335938 122.027344 99.34375 120.597656 C 98.324219 119.117188 97.574219 117.226562 96.105469 116.121094 C 95.207031 115.441406 93.03125 115.074219 92.679688 113.945312 C 93.074219 112.832031 94.011719 113.769531 94.460938 114.21875 C 95.386719 115.144531 95.34375 115.171875 96.1875 114.148438 C 98.214844 111.730469 100.253906 109.390625 102.035156 106.761719 C 102.757812 105.703125 103.710938 105.605469 104.90625 106.097656 C 105.558594 106.367188 107.207031 107.90625 107.558594 106.382812 C 106.238281 105.238281 104.703125 104.761719 103.65625 103.28125 C 102.648438 101.851562 102.132812 100.21875 101.695312 98.546875 C 101.398438 97.429688 101.382812 95.824219 100.933594 94.804688 C 101.902344 94.941406 102.894531 95.023438 103.710938 95.160156 C 108.703125 96.015625 113.71875 96.765625 118.738281 97.511719 C 121.773438 97.960938 126.289062 99.660156 129.199219 98.136719 C 129.566406 97.730469 129.933594 97.308594 130.300781 96.898438 C 131.402344 95.894531 132.476562 94.859375 133.523438 93.796875 C 135.402344 91.933594 136.53125 90.125 137.683594 87.8125 C 138.773438 85.636719 140.203125 83.269531 142.8125 82.996094 C 144.253906 82.847656 145.953125 82.804688 146.960938 83.949219 C 148.402344 85.566406 149.097656 87.378906 149.125 89.527344 C 149.191406 93.375 149.683594 97.769531 148.292969 101.429688 C 147.21875 104.246094 144.40625 106.328125 142.132812 108.109375 C 140.691406 109.238281 139.03125 109.933594 139.15625 111.890625 C 139.289062 114.109375 140.09375 116.300781 140.40625 118.488281 C 140.757812 120.9375 140.050781 123.511719 140.800781 125.890625 C 141.289062 127.480469 141.4375 128.367188 140.460938 129.929688 C 139.398438 131.617188 136.910156 132.40625 136.230469 134.242188 C 135.753906 135.523438 136.269531 137.113281 134.992188 138.105469 C 134.066406 138.816406 133.46875 138.242188 132.53125 137.929688 C 132.652344 140.394531 134.136719 143.113281 135.320312 145.167969 C 136.882812 147.886719 138.40625 150.746094 139.222656 153.804688 C 139.671875 155.480469 139.847656 157.425781 140.882812 158.878906 C 142.050781 160.527344 144.160156 161.667969 145.777344 162.757812 C 147.585938 163.980469 149.53125 165.125 151.164062 166.582031 C 151.777344 167.136719 152.917969 168.007812 153.042969 168.933594 C 153.164062 169.832031 152.335938 170.566406 152.308594 171.449219 C 152.28125 172.417969 153.109375 173.585938 153.515625 174.390625 C 154.304688 175.96875 155.488281 178.292969 155.175781 180.144531 Z M 155.175781 180.144531 " fill-opacity="1" fill-rule="nonzero"/><path fill="#e69926" d="M 245.121094 216.792969 C 243.667969 218.304688 242.171875 219.460938 240.46875 220.683594 C 239.964844 221.039062 236.484375 223.050781 236.949219 224.167969 C 237.316406 225.066406 239.597656 224.984375 240.386719 225.308594 C 242.496094 226.195312 242.0625 227.40625 241.558594 229.460938 C 240.945312 231.921875 242.851562 230.957031 244.304688 231.960938 C 246.058594 233.171875 246.507812 235.609375 246.972656 237.511719 C 247.367188 239.117188 247.296875 240.628906 247.296875 242.289062 C 247.296875 244.613281 247.367188 246.980469 246.753906 249.253906 C 246.589844 249.851562 246.578125 250.789062 245.734375 250.65625 C 245.054688 249.8125 244.457031 248.925781 243.9375 247.976562 C 243.433594 247.144531 242.90625 246.328125 242.332031 245.539062 C 241.652344 244.738281 240.851562 244.125 239.941406 243.636719 C 238.648438 242.925781 238.292969 242.558594 237.761719 241.035156 C 237.410156 240.003906 237.382812 239.609375 236.484375 239.023438 C 235.546875 238.425781 235.015625 238.03125 234.242188 237.214844 C 232.933594 235.8125 231.914062 234.179688 231.738281 232.222656 C 231.644531 231.171875 231.75 230.644531 231.34375 229.636719 C 231.058594 228.941406 230.71875 228.234375 230.28125 227.609375 C 229.207031 226.03125 227.289062 224.726562 227.386719 222.535156 C 227.425781 221.542969 228.148438 221.066406 228.664062 220.261719 C 229.179688 219.445312 229.261719 218.535156 229.699219 217.691406 C 230.324219 216.453125 231.34375 215.285156 232.160156 214.167969 C 233.382812 212.480469 235.355469 211.394531 236.210938 209.476562 C 236.675781 208.425781 236.539062 207.257812 236.511719 206.113281 C 236.417969 207.324219 236.878906 208.535156 237.21875 209.691406 C 237.613281 211.027344 237.683594 212.359375 239.070312 212.972656 C 240.171875 213.445312 241.148438 213.527344 242.144531 214.222656 C 243.082031 214.875 243.925781 215.570312 244.726562 216.386719 " fill-opacity="1" fill-rule="nonzero"/><path fill="#e69926" d="M 149.367188 242.683594 C 149.300781 246.289062 144.324219 249.824219 146.214844 253.472656 C 146.6875 254.382812 147.585938 254.707031 148.308594 255.402344 C 149.503906 256.546875 149.191406 257.511719 149.574219 259.019531 C 149.84375 260.070312 150.417969 260.789062 151 261.675781 C 151.980469 263.117188 151.097656 264.449219 151.464844 265.960938 C 152.183594 268.925781 156.847656 262.339844 157.707031 261.496094 C 159.027344 260.191406 160.605469 259.117188 161.867188 257.769531 C 162.289062 257.320312 163.1875 256.667969 162.574219 255.988281 C 161.8125 255.15625 159.242188 256.273438 158.238281 256.109375 C 156.644531 255.863281 156.535156 254.394531 156.046875 253.050781 C 155.585938 251.769531 155 250.683594 155.378906 249.363281 C 155.558594 248.75 155.679688 248.027344 155.898438 247.429688 C 156.035156 247.078125 156.496094 246.710938 156.6875 246.355469 C 157.054688 245.675781 157.257812 244.832031 157.449219 244.082031 C 157.789062 242.792969 158.644531 240.925781 156.726562 240.546875 C 155.40625 240.289062 154.046875 241.445312 152.835938 241.839844 C 151.707031 242.207031 150.550781 242.085938 149.789062 243.117188 " fill-opacity="1" fill-rule="nonzero"/><path fill="#e69926" d="M 245.558594 300.066406 C 245.71875 301.683594 245.21875 303.304688 244.632812 304.785156 C 244.238281 305.777344 241.871094 308.8125 242.960938 309.820312 C 244.714844 309.792969 245.664062 307.859375 246.835938 306.8125 C 247.554688 306.171875 248.277344 305.546875 249.011719 304.933594 C 249.9375 304.144531 250.222656 303.382812 250.5625 302.214844 C 251.214844 299.957031 251.855469 297.699219 252.195312 295.371094 C 252.398438 293.957031 251.800781 292.894531 251.132812 291.65625 C 249.855469 289.25 249.203125 286.746094 248.5625 284.105469 C 247.949219 281.605469 246.835938 279.398438 243.953125 280.285156 C 241.734375 280.964844 240.660156 283.890625 239.941406 285.902344 C 239.109375 288.203125 239.53125 290.214844 240.566406 292.339844 C 241.910156 295.097656 241 297.519531 239.722656 300.105469 C 239.300781 300.976562 238.835938 301.902344 238.550781 302.828125 C 238.15625 304.132812 238.144531 305.589844 237.519531 306.8125 C 238.007812 305.34375 239.015625 303.453125 240.183594 302.433594 C 241.75 301.070312 243.652344 301.371094 245.558594 301.371094 " fill-opacity="1" fill-rule="nonzero"/><path fill="#e69926" d="M 122.617188 316.878906 C 126.371094 316.878906 130.164062 316.691406 133.902344 316.824219 C 136.269531 316.90625 138.324219 317.082031 140.148438 318.675781 C 141.765625 320.078125 143.085938 322.292969 144.40625 324.007812 C 144.949219 324.714844 145.492188 326.402344 145.453125 327.300781 C 145.355469 329.613281 141.886719 328.128906 140.785156 327.84375 C 137.359375 326.945312 134.257812 325.261719 130.859375 324.335938 C 129.523438 323.980469 128.207031 323.816406 126.832031 323.777344 C 125.5 323.738281 122.492188 323.21875 121.363281 324.238281 C 119.488281 325.914062 120.277344 329.164062 117.472656 329.75 C 112.972656 330.6875 108.183594 330.390625 104.390625 327.613281 C 101.710938 325.65625 99.125 323.503906 96.5 321.449219 C 94.367188 319.777344 92.054688 317.980469 90.230469 315.953125 C 88.027344 313.507812 86.515625 311.03125 85.605469 307.914062 C 85.292969 306.828125 85.265625 306.621094 86.339844 305.902344 C 86.722656 305.644531 88.082031 304.8125 88.542969 304.839844 C 89.945312 304.933594 91.140625 308.160156 91.984375 309.152344 C 92.527344 309.792969 93.195312 310.269531 93.710938 310.949219 C 94.132812 311.492188 94.417969 312.171875 94.992188 312.609375 C 95.386719 312.921875 96.652344 313.535156 97.179688 313.492188 C 97.753906 313.4375 98.105469 312.894531 98.542969 312.582031 C 99.480469 311.929688 100.554688 311.535156 101.464844 310.824219 C 102.636719 309.914062 103.4375 308.472656 104.035156 307.125 C 104.527344 306.023438 104.785156 304.324219 104.445312 303.113281 C 104.238281 302.417969 101.765625 299.453125 103.191406 298.855469 C 104.199219 299.34375 104.894531 301.738281 105.300781 302.691406 C 105.667969 303.546875 105.789062 305.382812 106.972656 305.65625 C 108.0625 305.902344 108.347656 304.621094 109.339844 304.921875 C 110.304688 305.207031 111.328125 306.949219 111.871094 307.75 C 113.136719 309.640625 115 310.636719 116.957031 311.738281 C 117.609375 312.105469 118.574219 312.457031 119.09375 312.976562 C 119.828125 313.710938 119.9375 314.582031 120.902344 315.164062 " fill-opacity="1" fill-rule="nonzero"/><path fill="#e69926" d="M 62.226562 295.753906 C 63.179688 296.894531 63.898438 299.003906 63.964844 300.515625 C 64.007812 301.398438 63.558594 303.644531 65.164062 302.746094 C 66.15625 302.1875 66.101562 300.363281 66.101562 299.425781 C 66.101562 298.894531 66.183594 298.363281 66.035156 297.835938 C 65.804688 296.992188 65.121094 296.351562 64.890625 295.46875 C 64.402344 293.601562 64.144531 291.671875 63.613281 289.808594 C 63.382812 289.019531 63.285156 288.230469 62.578125 287.78125 C 61.804688 287.289062 61 287.398438 60.457031 288.066406 C 59.152344 289.617188 60.527344 292.785156 60.5 294.472656 " fill-opacity="1" fill-rule="nonzero"/><path fill="#121212" d="M 146.675781 189.84375 C 149.492188 188.945312 150.171875 190.117188 150.171875 190.117188 C 151.410156 186.648438 153.21875 186.621094 153.21875 186.621094 C 154.972656 188.578125 152.835938 192.101562 152.835938 192.101562 C 152.835938 192.101562 153 191.910156 154.277344 193.503906 C 155.558594 195.09375 154.644531 197.378906 154.644531 197.378906 C 155.351562 197.433594 166.574219 189.640625 168.953125 183.804688 C 171.320312 177.96875 179.890625 167.804688 179.890625 167.804688 C 179.835938 167.355469 177.117188 166.90625 177.117188 166.90625 C 185.507812 160.90625 230.175781 164.5 230.175781 164.5 C 230.175781 164.5 204.835938 170.675781 218.789062 189.300781 C 218.789062 189.300781 182.351562 192.566406 189.941406 209.066406 C 189.941406 209.066406 175.648438 203 168.015625 211.871094 C 168.015625 211.871094 161.078125 219.757812 158.808594 235.1875 L 158.5625 235.242188 C 148.851562 223.039062 138.894531 219.691406 138.894531 219.691406 C 127.851562 215.855469 118.519531 228.277344 118.519531 228.277344 C 116.808594 210.195312 83.648438 225.664062 83.648438 225.664062 C 86.367188 202.550781 61.355469 209.921875 61.355469 209.921875 C 61.355469 209.921875 98.199219 184.402344 108.46875 185.367188 C 108.46875 185.367188 106.347656 187.125 106.523438 187.542969 C 106.523438 187.542969 119.039062 192.035156 124.015625 195.898438 C 128.996094 199.761719 142.609375 200.863281 143.195312 200.457031 C 143.195312 200.457031 141.261719 198.945312 141.5625 196.917969 C 141.875 194.890625 142.105469 194.988281 142.105469 194.988281 C 142.105469 194.988281 138.488281 193.015625 139.03125 190.441406 C 139.03125 190.441406 140.609375 189.558594 143.425781 191.925781 C 143.425781 191.925781 143.4375 190.566406 146.320312 189.9375 Z M 146.675781 189.84375 " fill-opacity="1" fill-rule="nonzero"/><path fill="#ee3524" d="M 147.042969 194.511719 C 147.042969 194.511719 144.242188 194.457031 143.792969 193.679688 C 143.792969 193.679688 144.539062 196.144531 145.792969 195.871094 C 147.042969 195.613281 147.042969 194.511719 147.042969 194.511719 Z M 147.042969 194.511719 " fill-opacity="1" fill-rule="nonzero"/><path fill="#ee3524" d="M 148.921875 194.117188 C 148.921875 194.117188 151.464844 192.945312 151.558594 192.046875 C 151.558594 192.046875 151.859375 194.59375 150.621094 194.863281 C 149.382812 195.136719 148.921875 194.117188 148.921875 194.117188 Z M 148.921875 194.117188 " fill-opacity="1" fill-rule="nonzero"/><g clip-path="url(#278263120d)"><path fill="#121212" d="M 167.71875 76.914062 C 171.59375 75.105469 172.789062 76.65625 172.789062 76.65625 C 173.945312 71.445312 176.53125 71.078125 176.53125 71.078125 C 179.414062 73.570312 176.992188 79.011719 176.992188 79.011719 C 176.992188 79.011719 177.183594 78.699219 179.320312 80.75 C 181.453125 82.804688 180.554688 86.246094 180.554688 86.246094 C 181.578125 86.195312 196.265625 72.941406 198.605469 64.128906 C 200.945312 55.3125 211.378906 39.148438 211.378906 39.148438 C 211.214844 38.523438 207.214844 38.359375 207.214844 38.359375 C 218.175781 28.210938 282.972656 25.179688 282.972656 25.179688 C 282.972656 25.179688 247.746094 38.703125 271.195312 62.902344 C 271.195312 62.902344 219.46875 74.277344 233.382812 96.574219 C 233.382812 96.574219 211.746094 90.480469 202.414062 104.613281 C 202.414062 104.613281 193.914062 117.210938 193.464844 139.792969 L 193.125 139.917969 C 176.9375 124.175781 162.03125 121.195312 162.03125 121.195312 C 145.464844 117.714844 134.351562 137.265625 134.351562 137.265625 C 128.558594 111.621094 83.796875 139.917969 83.796875 139.917969 C 83.457031 106.21875 48.898438 121.402344 48.898438 121.402344 C 48.898438 121.402344 97.097656 77.976562 112.035156 77.488281 C 112.035156 77.488281 109.300781 80.398438 109.625 80.96875 C 109.625 80.96875 128.410156 85.117188 136.269531 89.746094 C 144.132812 94.371094 163.894531 93.457031 164.65625 92.777344 C 164.65625 92.777344 161.609375 90.96875 161.679688 88.003906 C 161.746094 85.039062 162.101562 85.117188 162.101562 85.117188 C 162.101562 85.117188 156.550781 82.941406 156.847656 79.148438 C 156.847656 79.148438 158.945312 77.582031 163.417969 80.480469 C 163.417969 80.480469 163.1875 78.519531 167.214844 77.09375 Z M 167.71875 76.914062 " fill-opacity="1" fill-rule="nonzero"/></g><path fill="#ee3524" d="M 169.105469 83.539062 C 169.105469 83.539062 165.066406 83.976562 164.289062 82.941406 C 164.289062 82.941406 165.8125 86.328125 167.554688 85.730469 C 169.292969 85.132812 169.105469 83.539062 169.105469 83.539062 Z M 169.105469 83.539062 " fill-opacity="1" fill-rule="nonzero"/><path fill="#ee3524" d="M 171.730469 82.628906 C 171.730469 82.628906 175.171875 80.464844 175.144531 79.175781 C 175.144531 79.175781 176.039062 82.777344 174.300781 83.390625 C 172.546875 84.003906 171.730469 82.628906 171.730469 82.628906 Z M 171.730469 82.628906 " fill-opacity="1" fill-rule="nonzero"/><path fill="#121212" d="M 284.753906 200.929688 C 287.789062 199.109375 288.902344 200.292969 288.902344 200.292969 C 289.40625 195.925781 291.5 195.394531 291.5 195.394531 C 294.085938 197.191406 292.5625 201.871094 292.5625 201.871094 C 292.5625 201.871094 292.699219 201.597656 294.628906 203.109375 C 296.5625 204.617188 296.113281 207.515625 296.113281 207.515625 C 296.941406 207.378906 307.878906 195.246094 309.046875 187.804688 C 310.21875 180.363281 317.398438 166.199219 317.398438 166.199219 C 317.207031 165.695312 313.917969 165.914062 313.917969 165.914062 C 322.050781 156.648438 375 148.625 375 148.625 C 375 148.625 347.210938 162.730469 368.539062 180.59375 C 368.539062 180.59375 327.042969 194.347656 340.371094 211.476562 C 340.371094 211.476562 322.078125 208.320312 315.628906 220.726562 C 315.628906 220.726562 309.726562 231.800781 311.292969 250.367188 L 311.019531 250.492188 C 296.386719 238.957031 283.886719 237.785156 283.886719 237.785156 C 269.984375 236.34375 262.53125 253.347656 262.53125 253.347656 C 255.59375 232.777344 221.25 259.835938 221.25 259.835938 C 218.097656 232.195312 191.015625 247.621094 191.015625 247.621094 C 191.015625 247.621094 226.882812 207.855469 239.097656 206.167969 C 239.097656 206.167969 237.097656 208.792969 237.421875 209.230469 C 237.421875 209.230469 253.199219 211.039062 260.054688 214.15625 C 266.898438 217.285156 283.042969 214.847656 283.625 214.222656 C 283.625 214.222656 280.960938 213 280.769531 210.5625 C 280.582031 208.128906 280.878906 208.167969 280.878906 208.167969 C 280.878906 208.167969 276.132812 206.863281 276.066406 203.71875 C 276.066406 203.71875 277.65625 202.265625 281.574219 204.25 C 281.574219 204.25 281.207031 202.671875 284.402344 201.148438 Z M 284.753906 200.929688 " fill-opacity="1" fill-rule="nonzero"/><path fill="#ee3524" d="M 286.457031 206.25 C 286.457031 206.25 283.179688 206.957031 282.457031 206.167969 C 282.457031 206.167969 283.992188 208.820312 285.382812 208.183594 C 286.753906 207.53125 286.457031 206.25 286.457031 206.25 Z M 286.457031 206.25 " fill-opacity="1" fill-rule="nonzero"/><path fill="#ee3524" d="M 288.535156 205.285156 C 288.535156 205.285156 291.175781 203.21875 291.039062 202.15625 C 291.039062 202.15625 292.085938 205.039062 290.714844 205.679688 C 289.324219 206.332031 288.535156 205.285156 288.535156 205.285156 Z M 288.535156 205.285156 " fill-opacity="1" fill-rule="nonzero"/></svg>